<?xml version="1.0" encoding="UTF-8"?>
<!DOCTYPE svg PUBLIC "-//W3C//DTD SVG 1.1//EN" "http://www.w3.org/Graphics/SVG/1.1/DTD/svg11.dtd">
<!-- Creator: CorelDRAW (Evaluation Version) -->
<svg xmlns="http://www.w3.org/2000/svg" xml:space="preserve" width="4.57in" height="0.954079in" version="1.1" style="shape-rendering:geometricPrecision; text-rendering:geometricPrecision; image-rendering:optimizeQuality; fill-rule:evenodd; clip-rule:evenodd"
viewBox="0 0 3817.4 796.96"
 xmlns:xlink="http://www.w3.org/1999/xlink"
 xmlns:xodm="http://www.corel.com/coreldraw/odm/2003">
 <defs>
  <style type="text/css">
   <![CDATA[
    .fil1 {fill:#F68D3A}
    .fil0 {fill:#FEFEFE}
   ]]>
  </style>
 </defs>
 <g id="Layer_x0020_1">
  <metadata id="CorelCorpID_0Corel-Layer"/>
  <g id="_490775128">
   <path class="fil0" d="M2216.41 505.45c35.08,8.17 59.9,4.63 101.8,4.63 22.68,0 13.88,-52.55 13.88,-97.17 0,-38.56 0,-77.12 0,-115.68 16.94,11.35 32.22,37.23 47.46,54.33l114.96 139.53c21.63,26.89 31.39,18.99 96.69,18.99 10.66,0 13.88,-3.22 13.88,-13.88l0 -384.05c0,-24.14 -48.99,-13.88 -115.68,-13.88l0 212.85 -163.08 -197.84c-13.87,-17.22 -16.26,-15.52 -44.91,-15.25 -20.15,0.19 -40.23,0.24 -60.39,0.24 -14.78,63.43 -4.63,319.1 -4.63,407.19z"/>
   <path class="fil0" d="M1508.45 306.48l-78.66 0 0 -111.05 78.66 0c65.78,0 65.78,111.05 0,111.05zm-198.97 -194.34l0 384.05c0,22.82 36.48,13.88 97.17,13.88 12.5,0 12.76,-2.21 23.14,-4.63l0 -106.42c70.36,0 49.81,-12.27 117.32,90.9 19.75,30.17 21.18,18.68 54.21,15.68 22.94,-2.09 48.42,4.47 78.33,4.47 -2.52,-30.22 -70.25,-98.08 -78.66,-134.19 94.2,-25.15 140.71,-277.63 -120.31,-277.63l-157.32 0c-10.67,0 -13.88,3.22 -13.88,13.88z"/>
   <path class="fil0" d="M1943.41 417.53c-144.83,0 -154.62,-226.73 4.63,-226.73 92.74,0 124.31,130.33 70.72,191.02 -15.79,17.89 -43.67,35.7 -75.35,35.7zm-27.76 97.17c69.64,0 126.76,-3.84 181.69,-58.92 60.92,-61.09 63.55,-93.77 63.55,-172.43 0,-23.86 -10.53,-58.07 -18.7,-73.84 -22.94,-44.26 -53.94,-73.46 -98.44,-95.91 -75.75,-38.21 -208.7,-26.01 -272.77,43.59l-39.9 61.9c-30.03,73.79 -21.58,157.79 28.14,216.05 1.44,1.69 4.56,5.25 6.53,7.35 37.03,39.54 92.56,72.21 149.89,72.21z"/>
   <path class="fil1" d="M41.64 264.84c0,20.15 -41.64,35.37 -41.64,55.53l0 138.81c201.07,0 155.13,21.9 248.74,-84.41l57.77 -57.91c25.49,-28.95 78,-78.06 82.17,-93.66l-254.5 0c24.49,-36.57 205.21,-193.47 212.85,-222.11l-305.39 0 0 263.75z"/>
   <path class="fil1" d="M217.48 491.57c0,162.97 -20.23,111.65 84.44,216.32 22.94,22.94 68.55,73.78 91.39,89.07l0 -347.04 166.58 0c14.37,0 37.15,-28.85 48.12,-39.8l112.28 -109.82c0.65,-0.7 1.62,-1.66 2.27,-2.36 12.08,-13.25 9.83,-6.74 13.16,-19.22l-273.04 -0.04c-52.3,-0.42 -40.47,-4.03 -68.23,24.31 -30.8,31.45 -59.03,59.12 -90.21,90.25 -14.64,14.62 -86.76,89.65 -86.76,98.33z"/>
   <path class="fil1" d="M245.24 190.8c140.28,0 280.85,-0.9 421.1,0.03 65.31,0.43 51.33,-2.81 128.37,-79.85 18.87,-18.87 34.35,-34.35 53.21,-53.21 15.15,-15.15 44.23,-36.06 49.74,-56.68 -48.52,0 -452.51,-3.97 -468.71,3.27l-10.76 7.75c-25.88,21.64 -168.18,160.8 -172.96,178.7z"/>
   <path class="fil0" d="M943.94 496.2c0,23.17 39.43,13.88 101.8,13.88 10.66,0 13.88,-3.22 13.88,-13.88l0 -124.93 161.95 0c22.46,0 13.88,-33.67 13.88,-92.54l-161.95 0c-22.1,0 -13.88,-30.98 -13.88,-87.92l189.71 0c21.34,0 13.88,-26.01 13.88,-78.66 0,-10.67 -3.22,-13.88 -13.88,-13.88l-305.39 0 0 397.93z"/>
   <path class="fil0" d="M2642.11 112.14c0,105.52 -25.92,83.29 124.93,83.29l0 300.76c0,26.63 34.74,8.16 69.18,9.51 16.02,0.63 46.5,15.67 46.5,-9.51l0 -300.76 120.31 0 0 -97.17 -347.04 0c-10.66,0 -13.88,3.22 -13.88,13.88z"/>
   <path class="fil0" d="M3697.09 505.45l120.31 0 0 -393.31c0,-10.67 -3.22,-13.88 -13.88,-13.88l-106.43 0 0 407.19z"/>
   <polygon class="fil0" points="3044.67,505.45 3160.35,505.45 3160.35,98.26 3044.67,98.26 "/>
   <path class="fil1" d="M2484.78 787.71l46.27 0 0 -111.05c24.04,16.1 80.6,111.05 101.8,111.05l32.39 0 0 -194.34 -46.27 0 0 111.05c-17.24,-11.55 -57.13,-64.64 -72.96,-84.37 -25.55,-31.86 -10.49,-26.68 -61.23,-26.68l0 194.34z"/>
   <path class="fil1" d="M3206.62 787.71l46.27 0 0 -111.05c18.95,21.79 87.55,111.05 101.8,111.05l27.76 0 0 -194.34 -46.27 0 0 111.05c-11.47,-13.2 -83.82,-95.71 -87.92,-111.05l-41.64 0 0 194.34z"/>
   <path class="fil1" d="M1457.55 695.16l-41.64 0 0 -64.78c53.28,0 74.04,0.37 74.04,41.64 0,14.96 -16.8,23.14 -32.39,23.14zm-87.91 92.54l46.27 0 0 -50.9c41.37,0 43.17,-7.43 74.04,50.9l50.9 0c-11.68,-22.06 -25.34,-38.09 -37.02,-60.15 12.11,-16.53 16.9,-6.81 27.98,-32.2 23.02,-52.72 -9.05,-101.99 -74.26,-101.99l-87.91 0 0 194.34z"/>
   <path class="fil1" d="M3618.44 690.54c0,53.33 43.33,101.8 111.05,101.8 23.95,0 74.03,-12.53 74.03,-32.39l0 -74.03 -41.64 0c0,60.43 7.29,64.78 -41.64,64.78 -65.21,0 -73.2,-120.31 4.63,-120.31 31.9,0 34.76,12.96 55.53,18.51l28.83 -26.7c-47.53,-33 -102.21,-55.81 -157.37,-4.67 -19.23,17.83 -33.41,44.55 -33.41,73.01z"/>
   <path class="fil1" d="M1855.49 644.26c13.18,9.66 21,43.27 32.39,64.78l-55.53 0c5.14,-22.07 21.09,-40.23 23.14,-64.78zm-101.8 143.44l46.27 0c4.73,-20.31 12.02,-19.34 13.88,-41.64l87.92 0c6.83,14.24 10.98,27.41 18.51,41.64l46.27 0 -75.03 -174.84c-9.42,-21.4 2.65,-19.5 -45.28,-19.5 -16.81,0 -22.02,28.51 -27.84,41.56 -13.21,29.63 -63.13,133.93 -64.7,152.78z"/>
   <polygon class="fil1" points="976.33,630.38 1036.48,630.38 1036.48,787.71 1082.75,787.71 1082.75,630.38 1142.91,630.38 1142.91,593.37 976.33,593.37 "/>
   <polygon class="fil1" points="2910.48,787.71 2956.75,787.71 2956.75,593.37 2910.48,593.37 "/>
   <polygon class="fil1" points="2188.64,787.71 2234.92,787.71 2234.92,593.37 2188.64,593.37 "/>
  </g>
 </g>
</svg>
